<?xml version="1.0" encoding="UTF-8" standalone="no"?><svg xmlns="http://www.w3.org/2000/svg" xmlns:xlink="http://www.w3.org/1999/xlink" contentScriptType="application/ecmascript" contentStyleType="text/css" height="337px" preserveAspectRatio="none" style="width:387px;height:337px;" version="1.1" viewBox="0 0 387 337" width="387px" zoomAndPan="magnify"><defs><filter height="300%" id="fcmkz6090b81r" width="300%" x="-1" y="-1"><feGaussianBlur result="blurOut" stdDeviation="2.0"/><feColorMatrix in="blurOut" result="blurOut2" type="matrix" values="0 0 0 0 0 0 0 0 0 0 0 0 0 0 0 0 0 0 .4 0"/><feOffset dx="4.0" dy="4.0" in="blurOut2" result="blurOut3"/><feBlend in="SourceGraphic" in2="blurOut3" mode="normal"/></filter></defs><g><!--cluster system_auth--><polygon fill="#FFFFFF" filter="url(#fcmkz6090b81r)" points="22,24,127,24,134,46.2969,365,46.2969,365,325,22,325,22,24" style="stroke: #000000; stroke-width: 2.0;"/><line style="stroke: #000000; stroke-width: 2.0;" x1="22" x2="134" y1="46.2969" y2="46.2969"/><text fill="#000000" font-family="sans-serif" font-size="14" font-weight="bold" lengthAdjust="spacingAndGlyphs" textLength="99" x="26" y="38.9951">system_auth</text><!--class role_permissions--><rect fill="#FEFECE" filter="url(#fcmkz6090b81r)" height="86.4141" id="role_permissions" style="stroke: #A80036; stroke-width: 1.5;" width="155" x="38.5" y="223"/><ellipse cx="61.6" cy="239" fill="#FFAAAA" rx="11" ry="11" style="stroke: #A80036; stroke-width: 1.0;"/><path d="M62.4438,245.75 L59.9906,245.75 L59.9906,235.5 L56.85,235.5 L56.85,233.3594 L65.5844,233.3594 L65.5844,235.5 L62.4438,235.5 L62.4438,245.75 Z "/><text fill="#000000" font-family="sans-serif" font-size="12" lengthAdjust="spacingAndGlyphs" textLength="105" x="77.4" y="243.1543">role_permissions</text><line style="stroke: #A80036; stroke-width: 1.5;" x1="39.5" x2="192.5" y1="255" y2="255"/><text fill="#000000" font-family="sans-serif" font-size="11" font-weight="bold" lengthAdjust="spacingAndGlyphs" textLength="65" x="44.5" y="269.2104">role : Text</text><text fill="#000000" font-family="sans-serif" font-size="11" font-style="italic" lengthAdjust="spacingAndGlyphs" textLength="87" x="44.5" y="282.0151">resource : Text</text><line style="stroke: #A80036; stroke-width: 1.0;" x1="39.5" x2="192.5" y1="288.6094" y2="288.6094"/><text fill="#000000" font-family="sans-serif" font-size="11" lengthAdjust="spacingAndGlyphs" textLength="143" x="44.5" y="302.8198">permissions : set&lt;Text&gt;</text><!--class role_members--><rect fill="#FEFECE" filter="url(#fcmkz6090b81r)" height="73.6094" id="role_members" style="stroke: #A80036; stroke-width: 1.5;" width="120" x="229" y="229"/><ellipse cx="244" cy="245" fill="#FFAAAA" rx="11" ry="11" style="stroke: #A80036; stroke-width: 1.0;"/><path d="M244.8438,251.75 L242.3906,251.75 L242.3906,241.5 L239.25,241.5 L239.25,239.3594 L247.9844,239.3594 L247.9844,241.5 L244.8438,241.5 L244.8438,251.75 Z "/><text fill="#000000" font-family="sans-serif" font-size="12" lengthAdjust="spacingAndGlyphs" textLength="88" x="258" y="249.1543">role_members</text><line style="stroke: #A80036; stroke-width: 1.5;" x1="230" x2="348" y1="261" y2="261"/><text fill="#000000" font-family="sans-serif" font-size="11" font-weight="bold" lengthAdjust="spacingAndGlyphs" textLength="65" x="235" y="275.2104">role : Text</text><text fill="#000000" font-family="sans-serif" font-size="11" font-style="italic" lengthAdjust="spacingAndGlyphs" textLength="85" x="235" y="288.0151">member : Text</text><line style="stroke: #A80036; stroke-width: 1.0;" x1="230" x2="348" y1="294.6094" y2="294.6094"/><!--class roles--><rect fill="#FEFECE" filter="url(#fcmkz6090b81r)" height="104.0234" id="roles" style="stroke: #A80036; stroke-width: 1.5;" width="149" x="120.5" y="59"/><ellipse cx="175.25" cy="75" fill="#FFAAAA" rx="11" ry="11" style="stroke: #A80036; stroke-width: 1.0;"/><path d="M176.0938,81.75 L173.6406,81.75 L173.6406,71.5 L170.5,71.5 L170.5,69.3594 L179.2344,69.3594 L179.2344,71.5 L176.0938,71.5 L176.0938,81.75 Z "/><text fill="#000000" font-family="sans-serif" font-size="12" lengthAdjust="spacingAndGlyphs" textLength="31" x="195.75" y="79.1543">roles</text><line style="stroke: #A80036; stroke-width: 1.5;" x1="121.5" x2="268.5" y1="91" y2="91"/><text fill="#000000" font-family="sans-serif" font-size="11" font-weight="bold" lengthAdjust="spacingAndGlyphs" textLength="65" x="126.5" y="105.2104">role : Text</text><text fill="#000000" font-family="sans-serif" font-size="11" lengthAdjust="spacingAndGlyphs" textLength="111" x="126.5" y="118.0151">can_login : Boolean</text><text fill="#000000" font-family="sans-serif" font-size="11" lengthAdjust="spacingAndGlyphs" textLength="133" x="126.5" y="130.8198">is_superuser : Boolean</text><text fill="#000000" font-family="sans-serif" font-size="11" lengthAdjust="spacingAndGlyphs" textLength="137" x="126.5" y="143.6245">member_of : set&lt;Text&gt;</text><text fill="#000000" font-family="sans-serif" font-size="11" lengthAdjust="spacingAndGlyphs" textLength="105" x="126.5" y="156.4292">salted_hash : Text</text><!--link roles to role_permissions--><path d="M162.282,175.365 C154.049,191.31 145.411,208.04 137.856,222.671 " fill="none" id="roles-role_permissions" style="stroke: #A80036; stroke-width: 1.0;"/><polygon fill="#FFFFFF" points="168.474,163.372,162.1671,166.8682,162.9686,174.0346,169.2755,170.5384,168.474,163.372" style="stroke: #A80036; stroke-width: 1.0;"/><!--link roles to role_members--><path d="M233.52,174.698 C244.877,193.183 256.917,212.78 266.868,228.977 " fill="none" id="roles-role_members" style="stroke: #A80036; stroke-width: 1.0;"/><polygon fill="#FFFFFF" points="226.562,163.372,226.2952,170.5782,232.8444,173.5961,233.1112,166.3899,226.562,163.372" style="stroke: #A80036; stroke-width: 1.0;"/><!--
@startuml
' uncomment the line below if you're using computer with a retina display
' skinparam dpi 300
' we use bold for primary key
' green color for unique
' and underscore for not_null
' other tags available:
' <i></i>
' <back:COLOR></color>, where color is a color name or html color code
' (#FFAACC)
' see: http://plantuml.com/classes.html#More
hide methods
hide stereotypes

' entities

package "system_auth" {
class role_permissions as "role_permissions" << (T,#FFAAAA) >> {
  <b>role : Text</b>
  <i>resource : Text</i>
  - - -
  permissions : set<Text>
}

class role_members as "role_members" << (T,#FFAAAA) >> {
  <b>role : Text</b>
  <i>member : Text</i>
  - - -
}

class roles as "roles" << (T,#FFAAAA) >> {
  <b>role : Text</b>
  can_login : Boolean
  is_superuser : Boolean
  member_of : set<Text>
  salted_hash : Text
}



}

roles o- - role_permissions
roles o- - role_members

@enduml

PlantUML version 1.2017.18(Fri Oct 06 18:56:32 CEST 2017)
(GPL source distribution)
Java Runtime: OpenJDK Runtime Environment
JVM: OpenJDK 64-Bit Server VM
Java Version: 1.8.0_144-b01
Operating System: Linux
OS Version: 4.10.0-38-generic
Default Encoding: UTF-8
Language: fr
Country: FR
--></g></svg>